<?xml version="1.0" encoding="UTF-8" standalone="no"?>
<svg
   xmlns:dc="http://purl.org/dc/elements/1.1/"
   xmlns:cc="http://creativecommons.org/ns#"
   xmlns:rdf="http://www.w3.org/1999/02/22-rdf-syntax-ns#"
   xmlns:svg="http://www.w3.org/2000/svg"
   xmlns="http://www.w3.org/2000/svg"
   xmlns:sodipodi="http://sodipodi.sourceforge.net/DTD/sodipodi-0.dtd"
   xmlns:inkscape="http://www.inkscape.org/namespaces/inkscape"
   width="358.58871mm"
   height="224.67897mm"
   viewBox="0 0 358.58872 224.67898"
   version="1.1"
   id="svg8"
   inkscape:version="1.0.2 (e86c870879, 2021-01-15)"
   sodipodi:docname="logo.svg"
   inkscape:export-filename="C:\Users\Danilo.DESKTOP-63UTJ0S\Pictures\logo1.png"
   inkscape:export-xdpi="96"
   inkscape:export-ydpi="96">
  <defs
     id="defs2" />
  <sodipodi:namedview
     id="base"
     pagecolor="#ffffff"
     bordercolor="#666666"
     borderopacity="1.0"
     inkscape:pageopacity="0.0"
     inkscape:pageshadow="2"
     inkscape:zoom="0.67307692"
     inkscape:cx="478.88277"
     inkscape:cy="436.81793"
     inkscape:document-units="mm"
     inkscape:current-layer="g3506"
     inkscape:document-rotation="0"
     showgrid="false"
     fit-margin-top="50"
     fit-margin-left="50"
     fit-margin-right="50"
     fit-margin-bottom="50"
     inkscape:window-width="1304"
     inkscape:window-height="745"
     inkscape:window-x="-8"
     inkscape:window-y="-8"
     inkscape:window-maximized="1" />
  <metadata
     id="metadata5">
    <rdf:RDF>
      <cc:Work
         rdf:about="">
        <dc:format>image/svg+xml</dc:format>
        <dc:type
           rdf:resource="http://purl.org/dc/dcmitype/StillImage" />
        <dc:title></dc:title>
      </cc:Work>
    </rdf:RDF>
  </metadata>
  <g
     inkscape:label="Capa 1"
     inkscape:groupmode="layer"
     id="layer1"
     transform="translate(286.93677,-3.3317017)">
    <g
       id="g3506"
       transform="translate(3.2752578e-7,1.1792857)">
      <path
         style="fill:#d3f6fa;stroke-width:0.264583"
         d="m -87.108574,110.88409 -1.984375,-0.51548 -1.61186,-0.78888 -1.61186,-0.78888 -1.210212,-1.06527 -1.210212,-1.06527 -0.683657,-1.37193 -0.683657,-1.37192 v -0.84101 -0.84102 l 0.165365,-0.82683 0.165364,-0.82682 h 3.100094 3.100093 l 3.613709,0.17331 3.613708,0.17331 v 1.54648 1.54648 l 1.521354,-1.9e-4 1.521354,-1.9e-4 v -4.696163 -4.696161 l -1.590916,1.06853 -1.590918,1.068528 -1.584082,0.511657 -1.584084,0.511656 -2.513541,0.0073 -2.513542,0.0073 -1.322917,-0.464027 -1.322916,-0.464026 -1.322917,-0.999194 -1.322916,-0.999191 -1.058334,-2.076217 -1.058333,-2.076214 V 79.975725 69.227659 l 0.830318,-1.752435 0.830315,-1.752435 0.984094,-1.089273 0.984094,-1.089274 1.752817,-0.862458 1.752817,-0.862458 h 3.047354 3.047357 l 2.058847,0.983101 2.058847,0.9831 1.302721,1.337454 1.302721,1.337454 0.408745,-1.376389 0.408744,-1.376389 v -0.339544 -0.339544 l 0.511773,-0.273892 0.511773,-0.273895 4.713747,0.0041 4.713748,0.004 0.339479,0.21541 0.339481,0.215409 -0.07751,18.235227 -0.07751,18.235225 -0.702852,1.899487 -0.70285,1.89949 -0.739106,1.26119 -0.739105,1.26118 -1.547588,1.53324 -1.547587,1.53324 -1.906643,0.91706 -1.906643,0.91706 -1.715781,0.40439 -1.715778,0.40438 -2.778124,-0.0107 -2.778125,-0.0107 -1.984375,-0.51548 z m 7.7457,-31.139243 -0.0595,-10.51719 -2.784766,-0.0751 -2.784764,-0.0751 v 10.592285 10.592284 l 2.844271,3e-6 2.844271,2e-6 z m -89.161686,17.27709 -1.11494,-0.348449 -1.15614,-0.677545 -1.15615,-0.677545 -1.00044,-1.107368 -1.00044,-1.107369 -0.69722,-1.486961 -0.69722,-1.486961 V 79.281823 68.433907 l 0.83671,-1.5875 0.8367,-1.5875 1.01538,-0.964814 1.01538,-0.964815 1.4552,-0.753927 1.45521,-0.753926 3.30729,0.0051 3.30729,0.0051 1.66324,0.70686 1.66323,0.70686 1.04391,0.826796 1.04392,0.826796 0.071,-6.302259 0.071,-6.302261 6.54844,-0.07077 6.54844,-0.07077 v 22.09733 22.09733 h -5.49765 -5.49765 l -0.48042,-1.86494 -0.48042,-1.864937 -1.28864,1.288643 -1.28864,1.288642 -1.28591,0.699882 -1.28591,0.699878 -1.55714,0.405582 -1.55713,0.405583 -1.86264,-0.0177 -1.86264,-0.0177 -1.11495,-0.348446 z m 11.83057,-17.343239 v -10.31875 h -2.91041 -2.91042 v 10.14236 10.142363 l 0.17639,0.176387 0.17639,0.17639 h 2.73403 2.73402 z m 30.82396,17.558961 -0.79375,-0.120499 -2.24896,-0.548404 -2.24896,-0.548407 -1.01849,-0.516705 -1.01849,-0.516705 -1.13435,-1.04561 -1.13435,-1.045609 -0.61544,-1.38299 -0.61543,-1.382991 -0.10172,-8.874648 -0.10171,-8.874649 0.2573,-2.128315 0.2573,-2.128316 0.45117,-0.950765 0.45117,-0.950764 0.9213,-0.948641 0.92131,-0.94864 1.28102,-0.649139 1.28101,-0.649138 2.20816,-0.6037 2.20816,-0.6037 6.21771,10e-4 6.21771,10e-4 1.71979,0.473195 1.71979,0.473195 1.36926,0.626557 1.36925,0.626556 1.19169,1.098456 1.19168,1.098457 0.54791,1.622456 0.54792,1.622456 v 10.045683 10.045684 l -0.45386,1.439801 -0.45386,1.439802 -0.97346,1.105911 -0.97346,1.10591 -1.28466,0.697188 -1.28466,0.697188 -2.11667,0.573815 -2.11666,0.573817 -5.42396,0.08533 -5.42396,0.08533 -0.79375,-0.120496 z m 8.06979,-17.691253 V 69.095365 h -2.91042 -2.91041 v 10.451041 10.451042 h 2.91041 2.91042 z m 89.032288,17.6853 -0.79375,-0.126063 -2.090655,-0.52727 -2.090653,-0.527269 -1.216639,-0.622718 -1.216636,-0.622718 -0.977712,-1.015048 -0.97771,-1.015047 -0.537831,-1.190625 -0.537835,-1.190625 -0.0058,-10.890946 -0.0058,-10.890944 0.864814,-1.676763 0.864815,-1.676763 1.466556,-0.978892 1.466559,-0.978892 2.36498,-0.704884 2.364984,-0.704883 4.905692,-0.135534 4.90569,-0.135535 2.23806,0.29979 2.238057,0.29979 1.984375,0.660868 1.984375,0.660867 1.322916,0.990944 1.322917,0.990944 0.8645657,1.704124 0.8645657,1.704123 -0.070816,6.233376 -0.070816,6.233377 -9.3265624,0.06953 -9.326562,0.06953 v 4.229947 4.229949 h 2.778125 2.778125 v -2.508502 -2.508501 l 0.595312,-0.145886 0.595313,-0.145888 5.953124,0.0747 5.9531254,0.0747 -0.014261,2.645833 -0.014261,2.645833 -0.6789103,1.47809 -0.6789102,1.478089 -0.9318307,0.931834 -0.9318342,0.93183 -1.231534,0.596178 -1.231535,0.596175 -1.905974,0.523862 -1.905973,0.523859 -5.55625,0.08406 -5.55625,0.08406 -0.79375,-0.126064 z m 8.334375,-24.299883 v -3.836458 h -2.778125 -2.778125 v 3.660068 3.660072 l 0.17639,0.176387 0.176387,0.176389 h 2.601737 2.601736 z M -231.83565,95.784888 v -0.562562 l 0.512,-2.281709 0.512,-2.281711 0.57805,-2.910417 0.57805,-2.910416 0.48922,-2.513542 0.48922,-2.513541 2.48179,-12.303125 2.4818,-12.303125 7.5806,-0.0702 7.5806,-0.0702 v 0.147384 0.147385 l -3.97058,19.89886 -3.97059,19.89886 -0.1355,0.595312 -0.13549,0.595313 h -7.53559 -7.53558 z m 29.43027,-5.980877 0.0708,-6.543437 1.05833,-0.56043 1.05834,-0.560432 5.78935,-3.131458 5.78935,-3.131457 -0.54821,-0.414152 -0.54821,-0.414155 -6.36562,-3.421676 -6.36562,-3.421674 v -6.418439 -6.418439 l 0.2088,-0.129048 0.20881,-0.129047 9.86148,6.179832 9.86149,6.179832 0.38075,0.315997 0.38075,0.315997 v 7.869989 7.869992 l -2.71198,1.664721 -2.71198,1.664721 -3.30729,2.034037 -3.30729,2.034038 -4.14455,2.554062 -4.14455,2.554063 h -0.29185 -0.29184 z m 143.407262,-15.47858 0.06767,-22.031107 h 6.614583 6.614583 V 74.25474 96.215156 l -6.68225,0.07069 -6.68225,0.07069 z M -1.6481617,93.313717 V 90.279983 L -1.257306,89.411113 -0.86645291,88.542239 0.09093126,86.028698 1.0483128,83.515156 2.1902703,80.60474 3.3322277,77.694323 4.77558,73.990157 6.218935,70.28599 l 0.1829858,-0.587953 0.1829884,-0.587954 -3.7858063,-0.0735 -3.78580628,-0.07351 -0.0742579,-3.075874 -0.074255,-3.075874 0.60342205,-0.161659 0.60342459,-0.161659 10.36325466,-0.0036 10.363258,-0.0036 0.418512,0.160599 0.418516,0.160599 v 2.607731 2.607731 l -0.554496,1.398857 -0.554492,1.398858 -2.345039,6.217708 -2.345037,6.217708 -1.20151,3.149322 -1.201509,3.149325 v 0.224112 0.224116 h 4.101041 4.101042 v 3.175 3.175 H 9.9935044 -1.6481617 Z"
         id="path3528" />
      <path
         style="fill:#f9f6cd;stroke-width:0.264583"
         d="m -87.108574,110.88409 -1.984375,-0.51548 -1.61186,-0.78888 -1.61186,-0.78888 -1.210212,-1.06527 -1.210212,-1.06527 -0.683657,-1.37193 -0.683657,-1.37192 v -0.84101 -0.84102 l 0.165365,-0.82683 0.165364,-0.82682 3.869531,0.0324 3.869531,0.0324 2.778125,0.16602 2.778125,0.16602 0.07935,1.52135 0.07935,1.52135 1.508148,-1.9e-4 1.508152,-1.9e-4 v -4.762449 -4.762445 l -0.08166,1.38e-4 -0.08166,1.4e-4 -0.976672,0.780974 -0.976673,0.780973 -1.49108,0.67977 -1.491078,0.67977 -2.125321,0.309769 -2.125321,0.309769 -1.634432,-0.303954 -1.634429,-0.303953 -1.193149,-0.577596 -1.193152,-0.577593 -1.021,-0.971254 -1.021001,-0.971253 -0.869392,-1.835942 -0.869394,-1.835938 V 79.943281 69.227657 l 0.830318,-1.752436 0.830315,-1.752435 0.984094,-1.089273 0.984094,-1.089273 1.752828,-0.862458 1.752827,-0.862458 2.915052,0.01278 2.915055,0.01278 1.772512,0.737583 1.772513,0.737583 1.721998,1.5779 1.722001,1.5779 0.426206,-1.534515 0.426207,-1.534516 0.105873,-0.330729 0.105873,-0.330729 h 5.442707 5.442709 l -0.08015,17.92552 -0.08014,17.92552 -0.677571,2.159409 -0.677569,2.1594 -0.906378,1.50609 -0.906377,1.50608 -1.465451,1.3616 -1.465453,1.36159 -1.626481,0.8664 -1.626483,0.86639 -2.043618,0.52267 -2.04362,0.52267 -2.669654,-0.0146 -2.669656,-0.0146 z m 7.68596,-31.120006 4.45e-4,-10.536427 -2.917161,-0.07481 -2.917161,-0.07481 v 10.547901 10.547903 l 0.11012,0.110241 0.110119,0.110244 2.806597,-0.04691 2.806597,-0.0469 5.29e-4,-10.536428 z m -89.101946,17.257853 -1.11494,-0.348449 -1.15614,-0.677545 -1.15615,-0.677545 -1.00044,-1.107368 -1.00044,-1.107369 -0.69722,-1.486961 -0.69722,-1.486961 V 79.281823 68.433907 l 0.83671,-1.5875 0.8367,-1.5875 1.01538,-0.964814 1.01538,-0.964815 1.4552,-0.753019 1.45521,-0.75302 3.175,0.0091 3.175,0.0091 1.47949,0.587646 1.47949,0.587645 1.29863,0.923655 1.29864,0.923655 0.13229,-6.284812 0.13229,-6.284812 h 6.4823 6.48229 l 0.0677,22.026562 0.0677,22.026562 h -5.49917 -5.49917 l -0.47711,-1.852084 -0.4771,-1.852083 h -0.10521 -0.10522 l -1.06322,1.153467 -1.06323,1.153467 -1.54346,0.822655 -1.54346,0.822656 -1.55539,0.405128 -1.55539,0.405127 -1.73035,-0.0177 -1.73035,-0.0177 -1.11495,-0.348446 z m 11.83063,-17.409385 7e-5,-10.384895 -2.84434,0.04694 -2.84433,0.04694 -0.0692,10.337958 -0.0692,10.337959 h 2.91348 2.91349 z m 30.8239,17.623927 -0.79375,-0.119319 -2.24896,-0.548404 -2.24896,-0.548407 -1.01849,-0.516705 -1.01849,-0.516705 -1.13435,-1.04561 -1.13435,-1.045609 -0.61544,-1.38299 -0.61543,-1.382991 -0.10172,-8.874648 -0.10171,-8.874649 0.2573,-2.128315 0.2573,-2.128316 0.45117,-0.950765 0.45117,-0.950764 0.9213,-0.948641 0.92131,-0.94864 1.28102,-0.649139 1.28101,-0.649138 2.20816,-0.6037 2.20816,-0.6037 6.21771,0.01518 6.21771,0.01518 2.28525,0.702613 2.28525,0.702613 1.28662,0.755647 1.28663,0.755647 0.85269,1.117371 0.85269,1.117372 0.33651,1.113354 0.33651,1.113353 -0.0104,10.451041 -0.0104,10.451042 -0.44788,1.148379 -0.44789,1.148376 -0.78501,0.99115 -0.785,0.991148 -1.53341,0.81543 -1.5334,0.81543 -2.11667,0.577723 -2.11666,0.577723 -5.29167,0.08035 -5.29166,0.08035 -0.79375,-0.119319 z m 8.06979,-17.690073 V 69.095365 h -2.91042 -2.91041 v 10.451041 10.451042 h 2.91041 2.91042 z m 89.032288,17.684118 -0.79375,-0.124881 -2.090655,-0.52727 -2.090653,-0.527269 -1.216639,-0.622718 -1.216636,-0.622718 -0.977712,-1.015048 -0.97771,-1.015047 -0.537831,-1.190625 -0.537835,-1.190625 -0.0058,-10.890946 -0.0058,-10.890944 0.864814,-1.676763 0.864815,-1.676763 1.466556,-0.978892 1.466559,-0.978892 2.36498,-0.725718 2.364984,-0.725718 6.217708,-0.01518 6.217708,-0.01518 1.5875,0.441269 1.5875,0.44127 1.508556,0.56514 1.508556,0.565139 1.3052107,1.173496 1.3052107,1.173496 0.6219242,1.259678 0.6219243,1.259678 0.090667,6.249993 0.090665,6.249995 -0.6883215,0.172757 -0.6883214,0.172757 -8.791159,-0.02072 -8.791162,-0.02072 -0.0727,4.247449 -0.0727,4.247446 h 2.91697 2.916971 v -2.485234 -2.485234 l 0.418515,-0.160599 0.418512,-0.160599 5.600758,0.0036 5.6007555,0.0036 0.6317614,0.169069 0.6317615,0.169069 -0.156046,2.211186 -0.1560459,2.211189 -0.466553,1.480074 -0.466553,1.480074 -0.9734603,1.10591 -0.9734622,1.105911 -1.284658,0.697188 -1.284661,0.697187 -2.116666,0.5783 -2.116667,0.5783 -5.423958,0.07947 -5.423958,0.07947 -0.79375,-0.12488 z m 8.334375,-24.298701 v -3.836458 h -2.910417 -2.910416 v 3.660068 3.660072 l 0.176389,0.176387 0.176387,0.176389 h 2.73403 2.734027 z M -231.83565,95.784888 v -0.562562 l 0.512,-2.281709 0.512,-2.281711 0.57805,-2.910417 0.57805,-2.910416 0.48922,-2.513542 0.48922,-2.513541 2.48178,-12.303125 2.48179,-12.303125 7.24613,-0.07051 7.24612,-0.07051 0.28652,0.109945 0.28651,0.109945 -4.10417,20.53192 -4.10417,20.531921 h -7.48952 -7.48953 z m 29.43021,-5.95077 0.0708,-6.573544 1.05833,-0.56043 1.05834,-0.560432 5.78935,-3.131458 5.78935,-3.131457 -0.54821,-0.414152 -0.54821,-0.414155 -6.36562,-3.421676 -6.36562,-3.421674 v -6.464913 -6.464912 l 0.5002,0.130804 0.5002,0.130805 2.47636,1.582233 2.47636,1.582233 5.42396,3.391112 5.42396,3.391112 2.05052,1.302186 2.05052,1.302185 v 7.761716 7.761713 l -0.7276,0.512631 -0.72761,0.51263 -9.30271,5.722246 -9.30272,5.72225 -0.42541,0.163245 -0.42541,0.163245 z m 143.407325,-15.513232 0.06766,-22.026562 6.548438,-0.07077 6.548437,-0.07077 v 22.09733 22.09733 h -6.616102 -6.616104 z M -1.6481617,93.313717 V 90.279983 L -1.257306,89.411113 -0.86645291,88.542239 0.09093126,86.028698 1.0483128,83.515156 2.1902703,80.60474 3.3322277,77.694323 4.77558,73.990157 6.218935,70.28599 l 0.1829858,-0.587953 0.1829884,-0.587954 -3.7858063,-0.0735 -3.78580628,-0.07351 -0.0745437,-3.108854 -0.074541,-3.108854 H 10.117398 21.370587 v 2.843903 2.843903 l -1.722173,4.498284 -1.722172,4.498285 -2.363185,6.217708 -2.363184,6.217708 4.151503,0.132292 4.151503,0.132291 0.07454,3.108854 0.07454,3.108855 H 10.001902 -1.6481617 Z"
         id="path3526" />
      <path
         style="fill:#f0f2b3;stroke-width:0.264583"
         d="m -86.843991,110.88583 -1.984375,-0.51373 -1.860211,-0.91269 -1.860214,-0.91269 -1.215318,-1.19815 -1.215316,-1.19815 -0.474165,-0.99888 -0.474163,-0.99888 -1.32e-4,-1.47527 -1.32e-4,-1.47527 0.217291,-0.35159 0.217292,-0.35158 6.342319,0.17812 6.342319,0.17813 0.231359,0.14299 0.231363,0.14299 v 1.43959 1.43959 h 1.5875 1.587499 v -4.762496 -4.7625 h -0.147806 -0.147807 l -0.976672,0.780974 -0.976673,0.780973 -1.468834,0.669586 -1.468832,0.669586 -2.031883,0.315889 -2.031884,0.315891 -1.788914,-0.32962 -1.788914,-0.329621 -1.284827,-0.699291 -1.284827,-0.699291 -1.150382,-1.279501 -1.150384,-1.279504 -0.606304,-1.508556 -0.606305,-1.508556 -0.08792,-9.392708 -0.08792,-9.392708 0.308176,-1.5875 0.308176,-1.5875 0.649227,-1.37554 0.649229,-1.375541 1.20123,-1.184263 1.201232,-1.184263 1.49793,-0.746412 1.497931,-0.746413 2.910416,0.01171 2.910417,0.0117 1.772512,0.737584 1.772513,0.737583 1.731465,1.586572 1.731462,1.586573 0.266338,-0.700517 0.266334,-0.700516 0.0016,-0.181214 0.0016,-0.181213 0.275545,-0.992187 0.275545,-0.992188 h 5.421966 5.421969 l -0.08015,17.925521 -0.08014,17.92552 -0.677571,2.159407 -0.677569,2.15941 -0.906378,1.50608 -0.906377,1.50608 -1.465451,1.3616 -1.465453,1.36159 -1.626481,0.8664 -1.626483,0.86639 -2.043618,0.52267 -2.04362,0.52267 -2.537362,-0.0146 -2.537365,-0.0146 -1.984375,-0.51373 z m 7.672916,-31.140986 V 69.095365 h -3.042708 -3.042708 V 79.6346 90.173838 l 0.110244,0.110241 0.110241,0.110244 h 2.932467 2.932464 z m -89.032285,17.289951 -1.05834,-0.335584 -1.13539,-0.583705 -1.1354,-0.583703 -1.07039,-1.102968 -1.0704,-1.102966 -0.48188,-0.94457 -0.48188,-0.944568 -0.43617,-1.500368 -0.43617,-1.50037 0.0837,-9.73646 0.0837,-9.73646 0.61286,-1.524408 0.61286,-1.524409 1.29749,-1.332087 1.2975,-1.332087 1.52662,-0.715379 1.52662,-0.715379 h 2.91042 2.91042 l 1.4169,0.493532 1.41691,0.493532 1.69195,1.158354 1.69195,1.158353 V 58.63786 52.152624 l 6.41614,0.07085 6.41615,0.07085 0.0677,22.031935 0.0677,22.031933 -5.47838,-0.07152 -5.47839,-0.07152 -0.41011,-1.635062 -0.41012,-1.635061 -0.17445,-0.170987 -0.17445,-0.170987 -1.08177,1.173578 -1.08176,1.173578 -1.54346,0.822655 -1.54346,0.822656 -1.55539,0.405128 -1.55539,0.405127 -1.59806,-0.0177 -1.59806,-0.0177 -1.05833,-0.335587 z m 11.71088,-17.371623 -0.0692,-10.334277 -2.91041,-0.02001 -2.91042,-0.02001 -0.0692,10.354282 -0.0692,10.354284 h 3.04885 3.04885 l -0.0692,-10.334276 z m 30.88703,17.579716 -0.79375,-0.113314 -2.26849,-0.541446 -2.26848,-0.541446 -1.56798,-0.864444 -1.56796,-0.864441 -0.97178,-1.277805 -0.97177,-1.277803 -0.285,-1.131826 -0.285,-1.131824 V 79.477265 69.455993 l 0.39565,-1.332296 0.39565,-1.332296 1.03144,-1.171776 1.03144,-1.171775 1.41718,-0.707816 1.41719,-0.707816 2.24895,-0.606447 2.24896,-0.606447 6.08542,0.0171 6.08542,0.0171 2.28525,0.700694 2.28525,0.700693 1.28662,0.755647 1.28663,0.755647 0.85269,1.117371 0.85269,1.117372 0.33651,1.113353 0.33651,1.113354 -0.0104,10.451041 -0.0104,10.451041 -0.44788,1.148379 -0.44789,1.148377 -0.78501,0.99115 -0.785,0.991148 -1.53341,0.81543 -1.5334,0.81543 -2.11667,0.577013 -2.11666,0.577012 -5.15938,0.08126 -5.15937,0.08126 -0.79375,-0.113313 z m 7.80521,-17.696482 V 69.095365 h -2.91042 -2.91041 v 10.451041 10.451042 h 2.91041 2.91042 z m 89.296871,17.684316 -0.79375,-0.125079 -2.090655,-0.52727 -2.090653,-0.527269 -1.34893,-0.67401 -1.348928,-0.674013 -0.752277,-0.69917 -0.752273,-0.699172 -0.702935,-1.322916 -0.702932,-1.322917 v -11.1125 -11.112499 l 0.626986,-1.262165 0.626986,-1.262164 1.186177,-1.044117 1.18618,-1.044116 1.494129,-0.559741 1.494126,-0.559741 1.587499,-0.439482 1.5875,-0.439482 h 5.953125 5.953125 l 1.5875,0.439482 1.5875,0.439482 1.508556,0.56514 1.508556,0.565139 1.3052107,1.173496 1.3052107,1.173496 0.6219242,1.259678 0.6219243,1.259678 0.090667,6.249993 0.090665,6.249995 -0.7004685,0.175805 -0.7004685,0.175808 -8.7790119,-0.03051 -8.779015,-0.03051 -0.0727,4.254188 -0.0727,4.254188 h 3.049262 3.049262 V 87.512214 85.02698 l 0.418515,-0.160599 0.418513,-0.1606 5.468466,0.0036 5.4684635,0.0036 0.6317614,0.169069 0.6317615,0.169068 -0.156046,2.211187 -0.1560459,2.211189 -0.466553,1.480073 -0.466553,1.480074 -0.9734603,1.105911 -0.9734622,1.105911 -1.284658,0.697187 -1.284661,0.697188 -2.116666,0.577617 -2.116667,0.577617 -5.291666,0.08035 -5.291667,0.08035 -0.79375,-0.125076 z m 8.275495,-24.365045 0.07341,-3.770312 h -3.049971 -3.049973 v 3.660068 3.660072 l 0.184806,0.184806 0.184808,0.184809 2.791754,-0.07457 2.791756,-0.07456 z m -211.525146,22.886458 0.14,-0.595312 3.8728,-19.446875 3.87279,-19.446874 0.24355,-0.595313 0.24355,-0.595312 h 7.23762 7.23761 l 0.12462,0.124612 0.12461,0.124612 -4.10036,20.512889 -4.10037,20.512886 h -7.51821 -7.51821 z m 29.44967,0.184489 -0.16355,-0.426204 v -5.89048 -5.890477 l 0.46302,-0.408289 0.46302,-0.408289 6.54844,-3.497683 6.54843,-3.497686 v -0.0852 -0.0852 l -3.10885,-1.699945 -3.10885,-1.699948 -2.11667,-1.13297 -2.11667,-1.132967 -1.65443,-0.913045 -1.65443,-0.913045 -0.14012,-0.572102 -0.14011,-0.572102 0.0747,-5.820833 0.0748,-5.820833 0.43014,0.03127 0.43015,0.03127 2.48027,1.584765 2.48027,1.584765 5.42396,3.391112 5.42396,3.391112 2.05052,1.302186 2.05052,1.302185 v 7.761716 7.761713 l -0.7276,0.51303 -0.72761,0.513032 -8.73125,5.371235 -8.73125,5.371235 -0.82863,0.491442 -0.82864,0.491442 z M -58.798159,74.25474 V 52.162032 h 6.482291 6.482292 V 74.25474 96.347448 h -6.482292 -6.482291 z m 57.3263871,21.916318 -0.1763898,-0.176387 0.00786,-2.667884 0.00786,-2.667881 4.176662,-10.715625 4.176662,-10.715624 -3.7214967,-0.132292 -3.72149666,-0.132292 -0.0745437,-3.108854 -0.0745411,-3.108854 H 10.24969 21.370587 v 2.843903 2.843903 l -1.722173,4.498284 -1.722172,4.498285 -2.363185,6.217708 -2.363184,6.217708 4.151503,0.132292 4.151503,0.132291 0.07454,3.108854 0.07454,3.108855 H 10.178289 -1.2953848 Z"
         id="path3524" />
      <path
         style="fill:#b0f1f0;stroke-width:0.264583"
         d="m -86.843991,110.88509 -1.984375,-0.51446 -1.689039,-0.85144 -1.689041,-0.85143 -1.266746,-1.13891 -1.266748,-1.13891 -0.573858,-1.18544 -0.57386,-1.18543 -0.01601,-1.12383 -0.01601,-1.12383 0.203112,-0.63651 0.203113,-0.63652 6.352315,0.17841 6.352317,0.17841 0.23136,0.14299 0.231362,0.14299 v 1.43959 1.43959 h 1.5875 1.5875 v -4.762496 -4.7625 h -0.147807 -0.147807 l -0.976672,0.780974 -0.976672,0.780973 -1.468835,0.669586 -1.468831,0.669586 -2.031884,0.315889 -2.031883,0.315891 -1.671968,-0.308072 -1.671971,-0.308073 -1.489051,-0.806506 -1.489051,-0.806503 -0.852136,-0.970528 -0.852133,-0.970529 -0.608179,-1.33499 -0.608179,-1.334989 -0.276471,-1.719792 -0.276471,-1.719792 0.0032,-7.672916 0.0033,-7.672916 0.26647,-1.843874 0.266472,-1.843876 0.630624,-1.377466 0.630624,-1.377466 1.138494,-1.23512 1.138494,-1.23512 1.597192,-0.835206 1.59721,-0.835205 2.910416,0.01278 2.910417,0.01278 1.772512,0.737583 1.772513,0.737583 1.707636,1.564739 1.707637,1.564738 h 0.125381 0.12538 l 0.480367,-1.852083 0.48037,-1.852083 h 5.3834 5.383403 l -0.08015,17.92552 -0.08014,17.92552 -0.677571,2.159409 -0.677569,2.1594 -0.906378,1.50609 -0.906377,1.50608 -1.465451,1.3616 -1.465453,1.36159 -1.626481,0.8664 -1.626483,0.86639 -2.043618,0.52267 -2.04362,0.52267 -2.537362,-0.0146 -2.537365,-0.0146 -1.984375,-0.51447 z m 7.672916,-31.140246 V 69.095365 h -3.042708 -3.042708 V 79.6346 90.173838 l 0.110244,0.110241 0.110241,0.110244 h 2.932467 2.932464 z m -89.032285,17.289951 -1.05834,-0.335584 -1.05833,-0.546833 -1.05833,-0.54683 -1.02841,-1.018114 -1.0284,-1.018111 -0.7655,-1.617382 -0.7655,-1.617382 -0.25509,-1.557618 -0.25508,-1.557618 -0.002,-8.099824 -0.002,-8.099825 0.2666,-1.405818 0.26661,-1.405818 0.63334,-1.383386 0.63333,-1.383386 1.08425,-1.052229 1.08425,-1.05223 1.52154,-0.758742 1.52164,-0.758741 h 2.91042 2.91042 l 1.4169,0.493532 1.41691,0.493532 1.69195,1.158354 1.69195,1.158353 V 58.63786 52.152624 l 6.41614,0.07085 6.41615,0.07085 0.0677,22.026562 0.0677,22.026562 h -5.40385 -5.40385 l -0.4771,-1.852084 -0.47711,-1.852083 h -0.20053 -0.20054 l -1.06322,1.153467 -1.06323,1.153467 -1.54346,0.822655 -1.54346,0.822656 -1.55539,0.405128 -1.55539,0.405127 -1.59806,-0.0177 -1.59806,-0.0177 -1.05833,-0.335587 z m 11.77402,-17.289951 7e-5,-10.517187 -2.97663,0.03846 -2.97663,0.03846 -0.0692,10.337746 -0.0692,10.337744 2.97963,0.08443 2.97962,0.08443 0.0661,0.05655 0.0662,0.05656 z m 30.29473,17.409067 -1.32292,-0.215641 -1.7009,-0.447191 -1.7009,-0.447193 -1.22477,-0.620636 -1.22476,-0.620636 -1.00712,-1.01352 -1.00712,-1.013521 -0.56513,-1.190625 -0.56513,-1.190625 V 79.546406 68.69849 l 0.74442,-1.515954 0.74442,-1.515954 0.91782,-0.756544 0.91782,-0.756544 1.11588,-0.554878 1.11589,-0.554878 2.24895,-0.612207 2.24896,-0.612207 6.08542,0.0171 6.08542,0.0171 2.28525,0.700694 2.28525,0.700693 1.28662,0.755647 1.28663,0.755647 0.85269,1.117371 0.85269,1.117372 0.33651,1.113353 0.33651,1.113354 -0.0104,10.451041 -0.0104,10.451041 -0.44788,1.148379 -0.44789,1.148377 -0.78501,0.99115 -0.785,0.991148 -1.53341,0.81543 -1.5334,0.81543 -2.11667,0.577013 -2.11666,0.577012 -5.15938,0.08794 -5.15937,0.08794 -1.32292,-0.215643 z m 8.59895,-17.607505 V 69.095365 h -3.0427 -3.04271 v 10.451041 10.451042 h 3.04271 3.0427 z m 89.032291,17.684316 -0.79375,-0.125079 -2.116666,-0.532649 -2.116667,-0.532651 -1.533403,-0.815774 -1.533406,-0.815776 -0.819356,-1.034521 -0.819357,-1.034524 -0.408215,-1.105003 -0.408215,-1.105006 -0.109098,-8.883075 -0.109098,-8.883076 0.287819,-2.35301 0.287822,-2.353009 0.738076,-1.199331 0.738076,-1.199331 1.415442,-0.951151 1.415438,-0.95115 1.766618,-0.568978 1.766617,-0.568977 2.22817,-0.299865 2.228168,-0.299864 4.636034,0.141942 4.636034,0.141942 1.459111,0.401705 1.459111,0.401705 1.504653,0.562963 1.504654,0.562963 1.3052107,1.173496 1.3052107,1.173496 0.6219242,1.259678 0.6219243,1.259678 0.090667,6.249993 0.090665,6.249995 -0.7004685,0.175805 -0.7004685,0.175808 -8.7790119,-0.03051 -8.779015,-0.03051 -0.0727,4.254188 -0.0727,4.254188 h 3.049262 3.049262 V 87.512214 85.02698 l 0.418515,-0.160599 0.418513,-0.1606 5.468466,0.0036 5.4684635,0.0036 0.6317614,0.169069 0.6317615,0.169068 -0.156046,2.211187 -0.1560459,2.211189 -0.466553,1.480073 -0.466553,1.480074 -0.9734603,1.105911 -0.9734622,1.105911 -1.284658,0.697187 -1.284661,0.697188 -2.116666,0.577617 -2.116667,0.577617 -5.291666,0.08035 -5.291667,0.08035 -0.79375,-0.125076 z m 8.334375,-24.298899 v -3.836458 h -3.042708 -3.042708 v 3.660068 3.660072 l 0.176389,0.176387 0.176387,0.176389 h 2.866321 2.866319 z m -211.512646,22.952604 0.10447,-0.463021 3.97309,-19.84375 3.97309,-19.843749 0.1227,-0.330729 0.1227,-0.330729 h 7.24025 7.24024 l 0.12462,0.124612 0.12461,0.124612 -4.10036,20.512889 -4.10037,20.512886 h -7.46475 -7.46476 z m 29.47932,-5.987037 v -6.502325 l 0.59531,-0.370952 0.59532,-0.370948 2.28118,-1.196094 2.28119,-1.196097 4.03052,-2.192551 4.03052,-2.192552 -0.42757,-0.312645 -0.42757,-0.312642 -6.47945,-3.532452 -6.47945,-3.53245 V 61.73305 55.280417 l 0.41686,0.159962 0.41685,0.159962 2.42742,1.550525 2.42741,1.550524 5.42396,3.391112 5.42396,3.391112 2.05052,1.302186 2.05052,1.302185 v 7.761716 7.761713 l -0.7276,0.51303 -0.72761,0.513032 -8.73125,5.371235 -8.73125,5.371235 -0.85989,0.509884 -0.8599,0.509886 z M -58.798159,74.25474 V 52.162032 h 6.482291 6.482292 V 74.25474 96.347448 h -6.482292 -6.482291 z M -1.3835784,93.299043 V 90.250638 L -0.43467145,87.808939 0.51423546,85.36724 1.9643187,81.663073 3.414402,77.958906 4.494791,75.180781 5.5751773,72.402657 6.1968422,70.835686 6.8185046,69.268716 6.81874,69.115895 6.8189782,68.963073 H 3.0484277 -0.72212006 l -0.0745437,-3.108854 -0.0745411,-3.108854 H 10.24969 21.370587 v 2.843903 2.843903 l -1.722173,4.498284 -1.722172,4.498285 -2.363185,6.217708 -2.363184,6.217708 4.151503,0.132292 4.151503,0.132291 0.07454,3.108854 0.07454,3.108855 H 10.134194 -1.3835784 Z"
         id="path3522" />
      <path
         style="fill:#cff1cf;stroke-width:0.264583"
         d="m -86.843991,110.88509 -1.984375,-0.51446 -1.689039,-0.85144 -1.689041,-0.85143 -1.266746,-1.13891 -1.266748,-1.13891 -0.573858,-1.18544 -0.57386,-1.18543 -0.01601,-1.12383 -0.01601,-1.12383 0.203112,-0.63651 0.203113,-0.63652 6.352315,0.17841 6.352317,0.17841 0.23136,0.14299 0.231362,0.14299 v 1.43959 1.43959 h 1.5875 1.5875 v -4.762496 -4.7625 h -0.09726 -0.09726 l -1.764554,1.183265 -1.764556,1.183264 -1.348624,0.400497 -1.34862,0.400497 -1.627016,0.166693 -1.627013,0.166693 -1.492522,-0.309846 -1.492525,-0.309848 -1.456243,-0.788734 -1.456245,-0.788736 -0.852136,-0.970528 -0.852133,-0.970529 -0.608179,-1.33499 -0.608179,-1.334989 -0.276471,-1.719792 -0.276471,-1.719792 0.0032,-7.672916 0.0033,-7.672916 0.26647,-1.843874 0.266472,-1.843876 0.630624,-1.377466 0.630624,-1.377466 1.138494,-1.23512 1.138494,-1.23512 1.597192,-0.81203 1.597189,-0.812029 2.0062,-0.120752 2.0062,-0.120751 1.386724,0.297399 1.386723,0.297399 1.489226,0.726218 1.489226,0.726218 1.425178,1.389062 1.425181,1.389063 h 0.208616 0.208618 l 0.480367,-1.852084 0.48037,-1.852083 5.306811,-2.2e-5 5.306808,-2.2e-5 -0.06475,17.780531 -0.06475,17.780528 -0.545346,1.98781 -0.545348,1.9878 -0.845106,1.59675 -0.845108,1.59675 -1.5875,1.59061 -1.5875,1.59062 -1.984375,0.97795 -1.984375,0.97795 -1.719791,0.40413 -1.719792,0.40413 -2.513542,-0.0107 -2.513541,-0.0107 -1.984375,-0.51447 z m 7.672916,-31.140246 V 69.095365 h -3.042708 -3.042708 V 79.6346 90.173838 l 0.110244,0.110241 0.110241,0.110244 h 2.932467 2.932464 z m -89.032285,17.289951 -1.05834,-0.335584 -1.05833,-0.546833 -1.05833,-0.54683 -1.02841,-1.018114 -1.0284,-1.018111 -0.7655,-1.617382 -0.7655,-1.617382 -0.25509,-1.557618 -0.25508,-1.557618 -0.002,-8.099824 -0.002,-8.099825 0.2666,-1.405818 0.26661,-1.405818 0.63334,-1.383386 0.63333,-1.383386 1.08425,-1.052229 1.08425,-1.05223 1.51943,-0.743388 1.51943,-0.743388 2.14276,-0.112466 2.14276,-0.112466 1.38092,0.296155 1.38092,0.296154 1.146,0.522065 1.14601,0.522065 1.22169,0.932539 1.22169,0.932538 h 0.13 0.13 v -6.482291 -6.482292 h 6.35 6.35 V 74.25474 96.347448 h -5.27003 -5.27004 l -0.4771,-1.852084 -0.47711,-1.852083 -0.27213,0.0068 -0.27213,0.0068 -1.23967,1.264769 -1.23968,1.264769 -1.29367,0.704104 -1.29368,0.704104 -1.55713,0.405582 -1.55714,0.405582 -1.59805,-0.0177 -1.59806,-0.0177 -1.05833,-0.335587 z m 11.77402,-17.289951 7e-5,-10.517187 -2.97663,0.03846 -2.97663,0.03846 -0.0692,10.337746 -0.0692,10.337744 2.97963,0.08443 2.97962,0.08443 0.0661,0.05655 0.0662,0.05656 z m 30.29473,17.409067 -1.32292,-0.215641 -1.7009,-0.447191 -1.7009,-0.447193 -1.22477,-0.620636 -1.22476,-0.620636 -1.00712,-1.01352 -1.00712,-1.013521 -0.56513,-1.190625 -0.56513,-1.190625 V 79.546406 68.69849 l 0.74442,-1.515954 0.74442,-1.515954 0.91782,-0.756544 0.91782,-0.756544 1.11588,-0.554878 1.11589,-0.554878 2.24895,-0.612207 2.24896,-0.612207 6.08542,0.0171 6.08542,0.0171 2.34043,0.716685 2.34043,0.716684 1.31273,0.853714 1.31273,0.853714 0.782,1.174971 0.78201,1.17497 0.27233,1.011361 0.27233,1.011362 -0.0773,10.778251 -0.0773,10.778251 -0.57615,1.076381 -0.57615,1.076383 -1.06557,0.962679 -1.06558,0.962681 -1.02463,0.522729 -1.02463,0.522729 -2.09615,0.573305 -2.09614,0.573302 -5.15937,0.08794 -5.15938,0.08794 z m 8.59895,-17.607505 V 69.095365 h -3.0427 -3.04271 v 10.451041 10.451042 h 3.04271 3.0427 z m 89.032291,17.684316 -0.79375,-0.125079 -2.116666,-0.532649 -2.116667,-0.532651 -1.533403,-0.815774 -1.533406,-0.815776 -0.819356,-1.034521 -0.819357,-1.034524 -0.408215,-1.105003 -0.408215,-1.105006 -0.109098,-8.883075 -0.109098,-8.883076 0.287819,-2.35301 0.287822,-2.353009 0.738076,-1.199331 0.738076,-1.199331 1.415442,-0.951151 1.415438,-0.95115 1.751656,-0.562991 1.751652,-0.562991 1.852084,-0.266555 1.852083,-0.266555 h 3.836458 3.836458 l 1.852083,0.263875 1.852084,0.263875 1.702816,0.562568 1.702816,0.562569 0.943017,0.535222 0.943017,0.535222 0.7512077,0.683614 0.7512103,0.683614 0.6522349,1.10612 0.6522349,1.106119 0.2455016,2.333464 0.2455015,2.333464 0.00471,4.270795 0.00471,4.270796 -0.6798389,0.17063 -0.6798415,0.17063 -8.7790115,-0.03051 -8.779034,-0.03051 -0.0727,4.254188 -0.0727,4.254188 h 3.049262 3.049262 V 87.512214 85.02698 l 0.418515,-0.160599 0.418513,-0.1606 h 5.512972 5.5129712 l 0.4185126,0.1606 0.4185153,0.160599 v 1.900478 1.900479 l -0.393483,1.51068 -0.3934804,1.510681 -0.6676284,1.05759 -0.6676284,1.057592 -1.4623199,0.970926 -1.46232,0.970926 -2.305217,0.648448 -2.305214,0.648449 -5.291666,0.07629 -5.291667,0.07628 z m 8.334375,-24.298899 v -3.836458 h -3.042708 -3.042708 v 3.836458 3.836458 h 3.042708 3.042708 z m -211.512646,22.952604 0.10447,-0.463021 3.97309,-19.84375 3.97309,-19.843749 0.1227,-0.330729 0.1227,-0.330729 h 7.28434 7.28435 v 0.296885 0.296885 l -3.97319,19.877592 -3.9732,19.877595 -0.14568,0.463021 -0.14567,0.463021 h -7.36574 -7.36573 z m 29.47932,-5.982743 v -6.506619 l 0.59531,-0.370952 0.59532,-0.370948 2.28118,-1.196094 2.28119,-1.196097 4.03052,-2.192551 4.03052,-2.192552 -0.42757,-0.312645 -0.42757,-0.312642 -6.47945,-3.532452 -6.47945,-3.53245 v -6.446374 -6.446373 l 0.23574,0.08819 0.23574,0.08819 9.94446,6.217708 9.94445,6.217708 0.006,7.960519 0.006,7.960518 -4.29948,2.648979 -4.29947,2.648977 -5.28726,3.249334 -5.28726,3.249335 -0.59972,0.392951 -0.59972,0.392954 V 89.901684 Z M -58.798159,74.250036 V 52.152624 l 6.416146,0.07085 6.416145,0.07085 0.06766,22.026562 0.06767,22.026562 h -6.483813 -6.48381 z M -1.3835784,93.299043 V 90.250638 L -0.43467145,87.808939 0.51423546,85.36724 1.9643187,81.663073 3.414402,77.958906 4.494791,75.180781 5.5751773,72.402657 6.1968422,70.835686 6.8185046,69.268716 6.81874,69.115895 6.8189782,68.963073 H 3.0484277 -0.72212006 l -0.0745437,-3.108854 -0.0745411,-3.108854 H 10.24969 21.370587 v 2.686185 2.686185 l -2.415556,6.375794 -2.415555,6.375794 -1.685486,4.449379 -1.685486,4.449378 v 0.114684 0.114684 h 4.056944 4.056946 l 0.110241,0.109217 0.110244,0.109215 -0.08216,3.065785 -0.08216,3.065783 H 9.9774865 -1.3835784 Z"
         id="path3520" />
      <path
         style="fill:#d1ed96;stroke-width:0.264583"
         d="m -85.458222,111.15241 -1.392354,-0.24947 -1.650355,-0.55414 -1.650351,-0.55414 -1.491478,-0.90378 -1.491474,-0.90378 -0.981631,-1.08655 -0.981628,-1.08654 -0.395835,-0.94737 -0.395838,-0.94737 -0.01524,-1.07393 -0.01524,-1.07393 0.194599,-0.60969 0.194595,-0.60968 6.261465,0.16777 6.261462,0.16777 0.330729,0.10288 0.33073,0.10288 v 1.5958 1.59581 h 1.587499 1.5875 v -5.023024 -5.02302 l -1.366406,1.034193 -1.366406,1.034195 -1.453092,0.556067 -1.453094,0.556067 -1.849691,0.262332 -1.849694,0.262334 -1.596284,-0.289462 -1.596284,-0.289459 -1.496513,-0.755439 -1.496509,-0.755435 -0.876364,-0.998122 -0.876363,-0.998125 -0.60818,-1.33499 -0.608179,-1.334989 -0.276471,-1.719792 -0.276471,-1.719792 0.0032,-7.672916 0.0033,-7.672916 0.26647,-1.843874 0.266473,-1.843876 0.635823,-1.388821 0.635822,-1.388822 1.213282,-1.297096 1.213283,-1.297097 1.598266,-0.717259 1.598266,-0.71726 1.903312,-0.143489 1.903312,-0.143489 1.649584,0.423089 1.649585,0.423089 1.38095,0.69978 1.38095,0.699781 1.402713,1.436744 1.402709,1.436744 0.226386,-0.608655 0.226385,-0.608656 0.351324,-1.389062 0.351327,-1.389063 5.307793,-2.2e-5 5.307793,-2.2e-5 -0.06475,17.780531 -0.06475,17.780528 -0.545346,1.98781 -0.545349,1.9878 -0.845105,1.59675 -0.845109,1.59675 -1.588039,1.58754 -1.58804,1.58754 -1.719252,0.85516 -1.719252,0.85516 -1.5875,0.4177 -1.5875,0.4177 -2.513541,0.10279 -2.513542,0.10279 -1.392356,-0.24946 z m 6.287147,-31.34142 V 69.095365 h -3.042708 -3.042708 V 79.6346 90.173838 l 0.17639,0.176387 0.176387,0.176389 h 2.866321 2.866318 z m -88.324185,17.311687 -1.14398,-0.225126 -1.36956,-0.635627 -1.36956,-0.635625 -1.02841,-1.028488 -1.0284,-1.028488 -0.77137,-1.629918 -0.77137,-1.629918 -0.26981,-1.733095 -0.26982,-1.733092 0.0913,-8.807821 0.0913,-8.807822 0.5766,-1.42281 0.57661,-1.422811 0.68381,-0.98674 0.68381,-0.98674 1.11473,-0.791375 1.11472,-0.791374 1.32291,-0.503242 1.32292,-0.503241 h 2.38125 2.38125 l 1.87271,0.613856 1.87272,0.613856 1.3738,1.03979 1.3738,1.039789 h 0.12692 0.12693 v -6.482291 -6.482292 h 6.35 6.35 V 74.25474 96.347448 h -5.2568 -5.25681 l -0.44694,-1.653646 -0.44694,-1.653646 -0.1239,-0.370115 -0.1239,-0.370115 -1.47758,1.489411 -1.47758,1.489414 -1.3645,0.667583 -1.36449,0.667586 -1.84747,0.391337 -1.84747,0.391335 -0.79375,-0.02439 -0.79375,-0.02439 z M -156.4294,79.678698 V 69.095365 h -3.04271 -3.04271 v 10.583333 10.583333 h 3.04271 3.04271 z m 30.16249,17.30771 -2.51354,-0.404653 -1.80843,-0.627632 -1.80844,-0.627631 -0.8374,-0.588293 -0.83739,-0.588296 -0.7775,-0.912892 -0.7775,-0.912889 -0.47064,-1.361776 -0.47063,-1.361773 -0.009,-9.939999 -0.009,-9.939998 0.40366,-1.359263 0.40366,-1.359263 0.85311,-1.109094 0.85312,-1.109095 1.40464,-0.789005 1.40464,-0.789004 1.90265,-0.499843 1.90265,-0.499843 2.50847,-0.296143 2.50847,-0.296142 3.70924,0.159247 3.70924,0.159246 2.29057,0.521902 2.29058,0.521902 1.31522,0.666471 1.31522,0.666471 0.83619,0.836194 0.8362,0.836195 0.58509,1.093907 0.58509,1.093907 v 11.377083 11.377083 l -0.57615,1.076381 -0.57615,1.076383 -1.11126,1.003951 -1.11125,1.003948 -1.15304,0.510048 -1.15305,0.510045 -2.31892,0.52392 -2.31893,0.523918 -4.23333,0.119491 -4.23333,0.119491 z m 8.40364,-6.944407 0.33384,-0.211926 -0.0693,-10.4335 -0.0693,-10.433502 -2.97656,-0.07481 -2.97656,-0.07481 v 10.5479 10.547903 l 0.17639,0.176387 0.17638,0.17639 2.5356,-0.004 2.53559,-0.004 0.33384,-0.211926 z m 89.624485,7.061586 -1.852084,-0.235257 -1.976405,-0.540176 -1.976406,-0.540176 -1.298943,-0.706972 -1.29894,-0.706972 -0.891913,-1.168103 -0.891913,-1.168101 -0.330655,-1.086337 -0.330658,-1.086337 V 79.546406 69.227657 l 0.337932,-1.113354 0.337931,-1.113353 0.852694,-1.112035 0.852693,-1.112036 1.5875,-0.87661 1.5875,-0.87661 2.38125,-0.591164 2.38125,-0.591163 5.423958,-0.0011 5.423958,-0.0011 2.310791,0.579442 2.310792,0.579441 1.54859,0.781726 1.548593,0.781727 0.832022,0.947622 0.8320246,0.947622 0.4204626,0.813083 0.4204599,0.813083 0.2412444,2.2922 0.2412444,2.2922 0.00471,4.296137 0.00471,4.296137 -9.4588539,0.06949 -9.458853,0.06949 v 4.365625 4.365625 h 2.910416 2.910417 l 0.07573,-2.579687 0.07573,-2.579688 h 6.340419 6.3404186 v 1.928786 1.928786 l -0.393483,1.510681 -0.3934804,1.510681 -0.6565344,1.040016 -0.6565344,1.040016 -1.1547364,0.794481 -1.154737,0.79448 -1.650476,0.556006 -1.650476,0.556003 -2.69321,0.382895 -2.693207,0.382891 -2.910416,-0.02862 -2.910417,-0.02862 -1.852083,-0.235257 z m 8.010717,-24.23791 -0.07322,-3.902604 h -2.910416 -2.910417 l -0.07322,3.902604 -0.07322,3.902604 h 3.056856 3.056855 z m -211.453572,23.01875 0.10447,-0.463021 3.97309,-19.84375 3.97309,-19.843749 0.1227,-0.330729 0.1227,-0.330729 h 7.28434 7.28435 v 0.296885 0.296885 l -3.97319,19.877592 -3.9732,19.877595 -0.14568,0.463021 -0.14567,0.463021 h -7.36574 -7.36573 z m 172.948108,-21.563541 0.06766,-22.026562 h 6.349999 6.35 l 0.06766,22.026562 0.06767,22.026562 h -6.485332 -6.485331 z M -1.3835784,93.299043 V 90.250638 L -0.43467145,87.808939 0.51423546,85.36724 1.9643187,81.663073 3.414402,77.958906 4.494791,75.180781 5.5751773,72.402657 6.1968422,70.835686 6.8185046,69.268716 V 69.049749 68.830782 H 2.9820464 -0.85441172 V 65.788073 62.745365 H 10.258088 21.370587 v 2.686185 2.686185 l -2.415556,6.375794 -2.415555,6.375794 -1.68728,4.454131 -1.687282,4.454133 0.149701,0.242221 0.149701,0.242223 4.019283,-5.29e-4 4.01928,-5.29e-4 -0.08216,3.043229 -0.08216,3.043246 H 9.9774865 -1.3835784 Z M -202.20232,89.744017 v -6.338845 l 1.12448,-0.63781 1.12448,-0.63781 5.78707,-3.123528 5.78707,-3.123528 -0.4321,-0.315957 -0.4321,-0.315955 -6.47945,-3.532452 -6.47945,-3.53245 V 61.755036 55.32439 l 0.88162,0.469342 0.88162,0.469342 9.29881,5.820833 9.29881,5.820833 0.006,7.960519 0.006,7.960518 -4.29948,2.64782 -4.29948,2.647818 -5.65333,3.480726 -5.65334,3.480723 h -0.23365 -0.23364 z"
         id="path3518" />
      <path
         style="fill:#96edcd;stroke-width:0.264583"
         d="m -84.595033,111.28077 -0.529166,-0.12187 -1.455209,-0.29054 -1.455208,-0.29055 -1.852083,-0.8558 -1.852083,-0.85579 -1.362239,-1.08497 -1.362239,-1.08495 -0.72426,-1.48033 -0.724257,-1.48033 0.152027,-1.473 0.152027,-1.47299 0.117451,-0.11745 0.117454,-0.11745 6.447226,0.21145 6.447226,0.21146 0.07877,1.65364 0.07877,1.65365 h 1.563579 1.563576 l 0.07744,-4.917448 0.07744,-4.917445 -0.08893,-0.08833 -0.08893,-0.08833 -1.343618,1.016947 -1.34362,1.016947 -1.453091,0.556067 -1.453095,0.556067 -1.849691,0.262332 -1.849694,0.262334 -1.597993,-0.289771 -1.597991,-0.289772 -1.264597,-0.640818 -1.264597,-0.640821 -0.96877,-0.968769 -0.968771,-0.96877 -0.826011,-1.743233 -0.826011,-1.743234 V 79.929378 69.199851 l 0.999578,-2.022326 0.999577,-2.022326 1.117089,-0.973304 1.11709,-0.973304 1.391697,-0.649091 1.391701,-0.64909 1.915591,-0.144418 1.915594,-0.144418 1.649584,0.423089 1.649584,0.423089 1.380951,0.69978 1.38095,0.699781 1.417174,1.451559 1.417177,1.451559 0.101005,-0.101007 0.101007,-0.101006 0.505331,-1.845381 0.50533,-1.84538 5.264703,-0.07144 5.264703,-0.07144 -0.06475,17.785798 -0.06475,17.785796 -0.545346,1.987809 -0.545348,1.9878 -0.845106,1.59675 -0.845108,1.59675 -1.58804,1.58754 -1.588039,1.58754 -1.719252,0.85516 -1.719252,0.85516 -1.5875,0.4177 -1.5875,0.4177 -2.513541,0.10317 -2.513542,0.10317 z m 5.423958,-31.46978 V 69.095365 h -3.042708 -3.042708 V 79.6346 90.173838 l 0.17639,0.176387 0.176387,0.176389 h 2.866321 2.866318 z m -88.263215,17.322093 -1.08302,-0.214718 -0.90136,-0.386177 -0.90136,-0.386176 -1.12139,-0.824748 -1.1214,-0.824751 -0.91116,-1.389637 -0.91117,-1.389637 -0.42683,-1.498023 -0.42682,-1.498023 0.0781,-10.011351 0.0781,-10.011352 0.748,-1.61857 0.74799,-1.61857 1.10409,-1.079982 1.10409,-1.079981 1.5875,-0.736251 1.5875,-0.736251 2.51354,-0.0048 2.51354,-0.0048 1.87271,0.613857 1.87272,0.613856 1.3738,1.039789 1.3738,1.03979 h 0.12222 0.12222 l 0.0708,-6.416146 0.0709,-6.416145 6.28385,-0.07094 6.28386,-0.07093 v 22.103089 22.10309 l -5.21604,-0.07174 -5.21604,-0.07174 -0.5172,-1.852083 -0.5172,-1.852084 -0.0887,-0.111315 -0.0887,-0.111316 -1.48332,1.495198 -1.48332,1.495195 -1.3645,0.667583 -1.36449,0.667586 -1.84747,0.391337 -1.84747,0.391335 -0.79375,-0.02439 -0.79375,-0.02439 z M -156.4294,79.678698 V 69.095365 h -3.04271 -3.04271 v 10.583333 10.583333 h 3.04271 3.04271 z m 30.29479,17.329599 -2.38125,-0.383444 -1.7198,-0.551672 -1.71979,-0.55167 -1.05062,-0.719055 -1.05063,-0.719056 -0.85701,-1.123616 -0.85701,-1.123617 -0.31461,-0.985507 -0.31461,-0.985504 -0.11714,-8.809746 -0.11713,-8.809744 0.2831,-2.10356 0.28309,-2.10356 0.52387,-1.026868 0.52387,-1.026867 1.22892,-1.081733 1.22891,-1.081733 1.48514,-0.555665 1.48515,-0.555664 1.99336,-0.440916 1.99335,-0.440916 5.15938,0.0079 5.15937,0.0079 2.42218,0.565741 2.42217,0.565742 1.31591,0.666823 1.31592,0.666823 0.83619,0.836194 0.8362,0.836195 0.58509,1.093907 0.58509,1.093907 v 11.377083 11.377083 l -0.57615,1.076381 -0.57615,1.076383 -1.11126,1.003951 -1.11125,1.003948 -1.15304,0.510048 -1.15305,0.510045 -2.31892,0.52392 -2.31893,0.523918 -4.23333,0.119829 -4.23333,0.119827 z m 8.27134,-6.966296 0.33384,-0.211926 -0.0693,-10.4335 -0.0693,-10.433502 -2.97656,-0.07481 -2.97656,-0.07481 v 10.5479 10.547903 l 0.17639,0.176387 0.17638,0.17639 2.5356,-0.004 2.53559,-0.004 0.33384,-0.211926 z m 89.624485,7.061586 -1.852084,-0.235257 -1.94288,-0.530976 -1.94288,-0.530979 -0.784905,-0.40589 -0.784902,-0.405889 -1.061689,-0.959173 -1.061688,-0.95917 -0.576154,-1.076383 -0.576151,-1.076381 V 79.546406 68.169323 l 0.576151,-1.076381 0.576154,-1.076382 1.06557,-0.962679 1.065572,-0.96268 1.068731,-0.545225 1.068729,-0.545226 2.316631,-0.580828 2.316628,-0.580828 h 5.423958 5.423958 l 2.310791,0.579442 2.310792,0.579441 1.54859,0.781726 1.548593,0.781727 0.832022,0.947622 0.8320246,0.947622 0.4204626,0.813083 0.4204599,0.813084 0.2412444,2.292199 0.2412444,2.2922 0.00471,4.296137 0.00471,4.296138 -9.4588539,0.06949 -9.458853,0.06949 v 4.365625 4.365624 h 2.910416 2.910417 l 0.07573,-2.579687 0.07573,-2.579687 h 6.340419 6.3404186 v 1.928786 1.928786 l -0.393483,1.51068 -0.3934804,1.510681 -0.6565344,1.040016 -0.6565344,1.040017 -1.1547364,0.79448 -1.154737,0.79448 -1.650476,0.556006 -1.650476,0.556003 -2.69321,0.382895 -2.693207,0.382892 -2.910416,-0.02862 -2.910417,-0.02862 -1.852083,-0.235257 z m 8.069791,-24.312721 v -3.977415 l -2.976562,0.07481 -2.976563,0.07481 -0.07322,3.902604 -0.07322,3.902604 h 3.049783 3.049781 z M -231.57107,96.030252 v -0.317199 l 3.98075,-19.85728 3.98075,-19.857283 0.13812,-0.46302 0.13813,-0.463021 h 7.25821 7.25821 v 0.296885 0.296885 l -3.97319,19.877592 -3.9732,19.877595 -0.14568,0.463021 -0.14567,0.463021 h -7.25822 -7.25821 z m 172.837538,-21.709366 0.06766,-22.026562 h 6.349999 6.35 l 0.06766,22.026562 0.06767,22.026562 h -6.485332 -6.485331 z m 57.3499536,18.992831 v -3.033734 l 0.39133729,-0.86887 0.39133725,-0.868874 3.70970426,-9.541292 3.7097042,-9.541296 V 69.145216 68.830782 H 2.9820464 -0.85441172 V 65.788073 62.745365 H 10.258088 21.370587 v 2.686185 2.686185 l -2.415556,6.375794 -2.415555,6.375794 -1.68728,4.454131 -1.687282,4.454133 0.149701,0.242221 0.149701,0.242223 4.019283,-5.29e-4 4.01928,-5.29e-4 -0.08216,3.043229 -0.08216,3.043246 H 9.9774865 -1.3835784 Z M -202.20232,89.74839 v -6.334471 l 4.43177,-2.401173 4.43177,-2.401171 2.44619,-1.252376 2.44618,-1.252376 10e-4,-0.265205 0.001,-0.265208 -6.15156,-3.28368 -6.15157,-3.28368 -0.7276,-0.504026 -0.7276,-0.504025 V 61.662694 55.32439 l 0.88162,0.469342 0.88162,0.469342 9.29881,5.820833 9.2988,5.820833 0.006,7.960519 0.006,7.960518 -4.29948,2.64782 -4.29948,2.647818 -5.65334,3.480726 -5.65356,3.480723 h -0.23365 -0.23364 z"
         id="path3516" />
      <path
         style="fill:#afedaf;stroke-width:0.264583"
         d="m -84.595033,111.26311 -0.529166,-0.10421 -1.455209,-0.29054 -1.455208,-0.29055 -1.852083,-0.8558 -1.852083,-0.85579 -1.362239,-1.08497 -1.362239,-1.08495 -0.72426,-1.48033 -0.724257,-1.48033 0.152027,-1.473 0.152027,-1.47299 0.114244,-0.11424 0.114247,-0.11425 6.37273,0.18326 6.37273,0.18325 0.0777,1.61249 0.0777,1.6125 1.642258,0.0785 1.642258,0.0785 0.07753,-4.929778 0.07753,-4.929775 -0.09155,-0.09095 -0.09155,-0.09095 -1.258443,0.904102 -1.258443,0.904103 -1.43592,0.657383 -1.435918,0.657387 -1.949423,0.276476 -1.949426,0.276479 -1.597993,-0.289771 -1.597991,-0.289772 -1.264597,-0.640818 -1.264597,-0.640821 -0.96877,-0.968769 -0.968771,-0.96877 -0.826011,-1.743233 -0.826011,-1.743234 V 79.929378 69.199851 l 0.999578,-2.022326 0.999577,-2.022326 1.117089,-0.973304 1.11709,-0.973304 1.391697,-0.649091 1.391701,-0.64909 1.915591,-0.144418 1.915594,-0.144418 1.653262,0.424031 1.653262,0.424031 1.119523,0.571138 1.119521,0.571137 1.660088,1.594098 1.660086,1.594098 0.115845,-0.115845 0.115845,-0.115844 0.505323,-1.845381 0.505322,-1.84538 5.198565,-0.07174 5.198565,-0.07174 V 80.29224 97.850299 l -0.521758,2.040057 -0.521759,2.040054 -0.945189,1.7987 -0.945192,1.7987 -1.509612,1.51306 -1.509615,1.51305 -2.116666,1.04532 -2.116667,1.04532 -2.073796,0.39207 -2.073796,0.39207 -1.630371,-0.0307 -1.63037,-0.0307 z m 5.423958,-31.45212 V 69.095365 h -3.042708 -3.042708 V 79.81099 90.526614 h 3.042708 3.042708 z m -88.263215,17.336957 -1.08302,-0.229582 -0.90136,-0.386177 -0.90136,-0.386176 -1.12139,-0.824748 -1.1214,-0.824751 -0.91116,-1.389637 -0.91117,-1.389637 -0.42683,-1.498023 -0.42682,-1.498023 0.0781,-10.011351 0.0781,-10.011352 0.748,-1.61857 0.74799,-1.61857 1.10409,-1.079982 1.10409,-1.079981 1.52399,-0.695488 1.52399,-0.695489 1.91559,-0.138983 1.91559,-0.138983 1.79158,0.42167 1.79158,0.421669 1.11884,0.566875 1.11884,0.566875 0.96411,0.758541 0.96412,0.758541 h 0.15566 0.15566 l 0.0708,-6.416146 0.0709,-6.416145 6.28385,-0.07094 6.28386,-0.07093 v 22.103089 22.10309 l -5.22331,-0.07174 -5.22331,-0.07174 -0.5253,-1.918229 -0.5253,-1.918229 h -0.19907 -0.19907 l -1.08403,1.176038 -1.08404,1.176041 -1.23652,0.784985 -1.23651,0.784984 -1.4245,0.416486 -1.4245,0.416488 -1.61821,0.121905 -1.61821,0.121904 z M -156.4294,79.6703 V 69.078572 l -3.10886,0.07454 -3.10885,0.07454 -0.0694,10.185725 -0.0694,10.185725 0.1272,0.331462 0.12719,0.331462 h 3.05102 3.05101 z m 30.29479,17.337997 -2.38125,-0.383444 -1.7198,-0.551672 -1.71979,-0.55167 -1.05062,-0.719055 -1.05063,-0.719056 -0.85701,-1.123616 -0.85701,-1.123617 -0.31461,-0.985507 -0.31461,-0.985504 -0.11714,-8.809746 -0.11713,-8.809744 0.2831,-2.10356 0.28309,-2.10356 0.52387,-1.026868 0.52387,-1.026867 1.22892,-1.081733 1.22891,-1.081733 1.48514,-0.555665 1.48515,-0.555664 1.99336,-0.440916 1.99335,-0.440916 5.15938,0.0079 5.15937,0.0079 2.46206,0.574446 2.46206,0.574446 1.33614,0.72722 1.33614,0.72722 1.00258,1.138987 1.00258,1.138987 0.44126,1.648055 0.44127,1.648055 -0.0827,10.186458 -0.0827,10.186458 -0.6095,1.322916 -0.60949,1.322917 -0.71342,0.752605 -0.71342,0.752604 -1.54831,0.786167 -1.54831,0.786165 -2.28815,0.517194 -2.28815,0.517192 -4.23333,0.119829 -4.23333,0.119827 z m 8.27134,-6.966296 0.33384,-0.211926 -0.0693,-10.4335 -0.0693,-10.433502 h -3.04271 -3.0427 l -0.0693,10.433502 -0.0693,10.4335 0.33385,0.211926 0.33384,0.211926 h 2.51354 2.51355 z m 89.624485,7.061586 -1.852084,-0.235257 -1.94288,-0.530976 -1.94288,-0.530979 -0.784905,-0.40589 -0.784902,-0.405889 -1.061689,-0.959173 -1.061688,-0.95917 -0.576154,-1.076383 -0.576151,-1.076381 V 79.546406 68.169323 l 0.576151,-1.076381 0.576154,-1.076382 1.06557,-0.962679 1.065572,-0.96268 1.068731,-0.545225 1.068729,-0.545226 2.316631,-0.580828 2.316628,-0.580828 h 5.423958 5.423958 l 2.316628,0.580828 2.316631,0.580828 1.122952,0.568975 1.122955,0.568975 0.939546,0.739081 0.9395464,0.739081 0.7802456,1.408522 0.7802456,1.408523 0.08318,6.416145 0.083182,6.416146 h -9.4161396 -9.416142 l 0.07254,4.431771 0.07254,4.43177 h 2.910417 2.910416 l 0.07573,-2.579687 0.07573,-2.579687 h 6.340419 6.3404192 v 1.538906 1.538907 l -0.2886684,1.561555 -0.2886683,1.561552 -0.4826635,0.934437 -0.4826608,0.934434 -1.0146082,0.964136 -1.014606,0.964134 -1.058333,0.527592 -1.058333,0.527595 -1.058333,0.300824 -1.058334,0.300823 -2.645833,0.385413 -2.645833,0.385414 -2.910417,-0.02862 -2.910416,-0.02862 z m 8.069791,-24.304055 v -3.96875 h -3.042708 -3.042708 v 3.96875 3.968749 h 3.042708 3.042708 z m -211.402076,23.23072 v -0.317199 l 3.98075,-19.85728 3.98075,-19.857283 0.13812,-0.46302 0.13813,-0.463021 h 7.25821 7.25821 v 0.09429 0.09429 l -4.10046,20.477061 -4.10045,20.477059 -5.9e-4,0.06615 -5.8e-4,0.06615 h -7.27605 -7.27604 z m 172.837536,-21.704659 0.06767,-22.031269 h 6.349999 6.35 V 74.25474 96.215156 l -6.417667,0.07085 -6.417667,0.07085 z m 57.3499556,18.988124 v -3.033734 l 0.39133729,-0.86887 0.39133725,-0.868874 3.70970426,-9.541292 3.7097042,-9.541296 V 69.145216 68.830782 H 2.9820464 -0.85441172 V 65.788073 62.745365 H 10.258088 21.370587 v 2.640594 2.640595 l -0.667403,1.658884 -0.667404,1.658885 -3.527597,9.320797 -3.527599,9.320795 0.138057,0.138059 0.138057,0.138057 h 4.056946 4.056943 v 3.042708 3.042709 H 9.9935044 -1.3835784 Z M -202.20232,89.74839 v -6.334471 l 4.43177,-2.401173 4.43177,-2.401171 2.44619,-1.252376 2.44618,-1.252376 10e-4,-0.264663 0.001,-0.264662 -6.61554,-3.54584 -6.61555,-3.545842 -0.26849,-0.323512 -0.26849,-0.323513 0.071,-6.257195 0.071,-6.257195 10.05416,6.310231 10.05417,6.310232 0.0679,7.917439 0.0679,7.917437 -10.01032,6.151562 -10.01032,6.151562 h -0.17786 -0.17785 V 89.74839 Z"
         id="path3514" />
      <path
         style="fill:#90edb1;stroke-width:0.264583"
         d="m -85.514954,110.98101 -2.242839,-0.39841 -1.41904,-0.53093 -1.419039,-0.53093 -1.629789,-1.10923 -1.629788,-1.10923 -0.851024,-1.2607 -0.851024,-1.26071 -0.17094,-0.91118 -0.170942,-0.91119 0.175305,-1.169 0.175303,-1.16901 3.360202,0.1162 3.360203,0.1162 3.042708,0.0755 3.042709,0.0755 0.132291,1.57435 0.132292,1.57436 1.642258,0.0785 1.642258,0.0785 0.07753,-4.929778 0.07753,-4.929775 -0.07848,-0.07788 -0.07848,-0.07787 -1.724548,1.156436 -1.724549,1.156435 -1.851652,0.562422 -1.85165,0.562422 -2.430737,-0.109542 -2.430738,-0.109543 -1.478089,-0.680593 -1.478089,-0.680593 -1.003192,-1.003192 -1.003191,-1.003189 -0.826011,-1.743233 -0.826011,-1.743234 V 79.943281 69.227657 l 0.817655,-1.719792 0.817658,-1.719792 0.709435,-0.838762 0.709436,-0.838763 1.212164,-0.802904 1.212162,-0.802904 1.988614,-0.442425 1.988613,-0.442424 1.814796,0.299707 1.814795,0.299707 1.48616,0.556044 1.486159,0.556044 1.833107,1.729258 1.833105,1.729258 0.110744,-0.110745 0.110746,-0.110746 0.505323,-1.845381 0.505322,-1.84538 5.198565,-0.07174 5.198565,-0.07174 V 80.29224 97.850299 l -0.521758,2.040057 -0.521759,2.040054 -0.945189,1.7987 -0.945192,1.7987 -1.509612,1.51306 -1.509615,1.51305 -2.116666,1.02799 -2.116667,1.02799 -2.494021,0.4094 -2.494018,0.4094 -0.813273,-0.0246 -0.813271,-0.0246 -2.242838,-0.39841 z m 6.280702,-31.236166 -0.06911,-10.781771 h -2.910417 -2.910416 l -0.06911,10.781771 -0.06911,10.78177 h 3.048643 3.048643 z m -89.484388,16.957807 -1.30903,-0.401691 -1.15166,-0.792361 -1.15165,-0.792358 -0.91311,-1.234919 -0.91312,-1.234916 -0.54088,-1.740837 -0.54087,-1.740839 0.0782,-10.033119 0.0782,-10.033121 0.76187,-1.649495 0.76188,-1.649495 1.23588,-1.156024 1.23589,-1.156025 1.44182,-0.536571 1.44183,-0.536571 1.32291,-0.179326 1.32292,-0.179326 1.7923,0.286364 1.7923,0.286365 1.42306,0.532435 1.42306,0.532435 1.20054,0.916679 1.20054,0.91668 h 0.14816 0.14817 v -6.35 -6.35 h 6.35 6.35 v 21.96601 21.966009 l -5.22331,-0.07174 -5.22331,-0.07174 -0.5253,-1.918229 -0.5253,-1.918229 h -0.14985 -0.14985 l -1.57602,1.529339 -1.57602,1.529339 -1.19063,0.554157 -1.19062,0.554159 -1.40209,0.297754 -1.40208,0.297752 -1.77292,-0.01842 -1.77291,-0.01842 -1.30903,-0.401691 z M -156.4294,79.6703 V 69.078572 l -3.10886,0.07454 -3.10885,0.07454 -0.0694,10.185725 -0.0694,10.185725 0.1272,0.331462 0.12719,0.331462 h 3.05102 3.05101 z m 30.55937,17.308388 -0.79375,-0.114888 -1.98438,-0.421782 -1.98437,-0.421783 -1.47813,-0.744427 -1.47814,-0.744426 -0.83202,-0.947621 -0.83202,-0.947624 -0.40075,-0.774948 -0.40074,-0.774952 -0.26042,-1.801164 -0.26042,-1.801167 v -7.9375 -7.937499 l 0.25992,-1.797608 0.25992,-1.797608 0.51752,-1.01444 0.51753,-1.01444 1.19379,-1.050814 1.19379,-1.050814 1.46726,-0.561491 1.46727,-0.561492 2.44324,-0.447518 2.44323,-0.447518 4.23334,-0.0029 4.23333,-0.0029 2.42887,0.439777 2.42887,0.439777 1.53168,0.573074 1.53168,0.573074 1.35057,1.350572 1.35057,1.350572 0.46009,1.717592 0.46009,1.717594 -0.0827,10.186458 -0.0827,10.186458 -0.6095,1.322916 -0.60949,1.322917 -0.71342,0.752277 -0.71342,0.752273 -1.28214,0.654101 -1.28214,0.6541 -2.02515,0.542832 -2.02515,0.542833 -5.42396,0.0775 -5.42396,0.0775 z m 8.20208,-17.432282 V 68.963073 h -3.04271 -3.0427 l -0.0693,10.318118 -0.0693,10.318117 0.1305,0.340072 0.1305,0.340074 2.98152,-0.07486 2.98152,-0.07486 z m 87.44479,17.172583 -2.248958,-0.406548 -1.719792,-0.79143 -1.719792,-0.79143 -0.883081,-0.844711 -0.883081,-0.844714 -0.572127,-1.058333 -0.572127,-1.058334 V 79.546406 68.169323 l 0.58425,-1.092256 0.584253,-1.092256 1.228913,-1.081733 1.228913,-1.081733 1.402188,-0.524626 1.402186,-0.524625 2.340898,-0.453419 2.340898,-0.45342 4.233333,-0.0036 4.233334,-0.0036 2.428872,0.440451 2.428872,0.44045 1.447945,0.541745 1.447946,0.541746 1.155747,0.882478 1.1557454,0.882479 0.7882704,1.423263 0.7882678,1.423263 0.08318,6.416145 0.083182,6.416146 h -9.4161396 -9.416142 l 0.07254,4.431771 0.07254,4.43177 h 2.910417 2.910416 l 0.07573,-2.579687 0.07573,-2.579687 h 6.340419 6.3404192 v 1.538906 1.538907 l -0.2886684,1.561555 -0.2886683,1.561552 -0.4826635,0.934437 -0.4826608,0.934434 -1.0146082,0.964136 -1.014606,0.964134 -1.11615,0.558348 -1.11615,0.558347 -1.661974,0.416976 -1.661975,0.416975 -5.688542,0.103232 -5.688541,0.103233 z m 10.054166,-23.919457 v -3.96875 h -3.042708 -3.042708 v 3.96875 3.968749 h 3.042708 3.042708 z m -211.387546,23.084895 0.0145,-0.463021 4.0271,-19.976041 4.0271,-19.976041 7.36521,-0.07038 7.3652,-0.07038 -0.18479,0.731842 -0.18479,0.731841 -3.94469,19.711458 -3.94469,19.711458 -0.001,0.06615 -0.001,0.06615 h -7.27605 -7.27604 l 0.0145,-0.463021 z M -58.798159,74.391736 V 52.426615 h 6.483821 6.48382 l -0.06768,21.894271 -0.06768,21.89427 -6.416145,0.07085 -6.416146,0.07085 z m 57.4145806,18.921981 v -3.033734 l 0.39133729,-0.86887 0.39133725,-0.868874 3.70970426,-9.541292 3.7097042,-9.541296 V 69.145216 68.830782 H 2.9820464 -0.85441172 V 65.788073 62.745365 H 10.258088 21.370587 v 2.640594 2.640595 l -0.667403,1.658884 -0.667404,1.658885 -3.527597,9.320797 -3.527599,9.320795 0.138057,0.138059 0.138057,0.138057 h 4.056946 4.056943 v 3.042708 3.042709 H 9.9935044 -1.3835784 Z M -202.20232,89.758376 v -6.324492 l 6.15156,-3.313887 6.15157,-3.313888 0.7276,-0.325967 0.7276,-0.325966 -7.9e-4,-0.288261 -9.3e-4,-0.288259 -5.88611,-3.156629 -5.88612,-3.156631 -0.99219,-0.617001 -0.99219,-0.617001 v -6.21439 -6.214389 l 0.33073,0.01049 0.33073,0.01049 9.78958,6.162408 9.78959,6.162408 0.0679,7.916166 0.0679,7.916166 -10.01031,6.151562 -10.01032,6.151563 h -0.17786 -0.17786 v -6.324489 z"
         id="path3512" />
      <path
         style="fill:#aded90;stroke-width:0.264583"
         d="m -85.514954,110.99485 -2.242839,-0.41225 -1.41904,-0.53093 -1.419039,-0.53093 -1.629789,-1.10923 -1.629788,-1.10923 -0.851024,-1.2607 -0.851024,-1.26071 -0.17094,-0.91118 -0.170942,-0.91119 0.174456,-1.16335 0.174456,-1.16335 3.096466,0.11013 3.096469,0.11012 3.307291,0.0725 3.307292,0.0725 0.07877,1.64396 0.07877,1.64395 h 1.695871 1.695868 l 0.07744,-4.920477 0.07744,-4.920475 -0.184126,-0.113379 -0.184126,-0.113377 -1.403374,1.071012 -1.403374,1.071013 -2.186096,0.687755 -2.186095,0.687755 -2.311821,-0.112474 -2.311821,-0.112472 -1.478089,-0.67904 -1.478089,-0.679037 -1.003192,-1.003192 -1.003191,-1.003189 -0.826011,-1.743233 -0.826011,-1.743234 V 79.929378 69.199851 l 0.999578,-2.022326 0.999577,-2.022326 1.117089,-0.972922 1.11709,-0.972922 1.058333,-0.474643 1.058333,-0.474643 1.629765,-0.316244 1.629764,-0.316243 2.074402,0.422944 2.074402,0.422946 1.615281,0.795097 1.615281,0.795098 1.239592,1.325224 1.239594,1.325224 h 0.225798 0.225798 l 0.514773,-1.918229 0.514776,-1.918229 5.213935,-0.07178 5.213934,-0.07178 -0.08819,18.063445 -0.08819,18.063445 -0.678945,2.018513 -0.678942,2.0185 -0.978387,1.6106 -0.978384,1.6106 -1.460984,1.30215 -1.460984,1.30215 -1.63413,0.82615 -1.63413,0.82614 -1.851054,0.38456 -1.851057,0.38456 -1.720818,0.13109 -1.720821,0.13109 z m 6.280702,-31.250006 -0.06911,-10.781771 h -3.042708 -3.042709 l -0.06927,10.450507 -0.06928,10.450505 0.127116,0.331266 0.127119,0.331263 h 3.05398 3.053979 z m -89.484388,16.957807 -1.30903,-0.401691 -1.15166,-0.792361 -1.15165,-0.792358 -0.91311,-1.234919 -0.91312,-1.234916 -0.54088,-1.740837 -0.54087,-1.740839 0.0782,-10.033119 0.0782,-10.033121 0.76187,-1.649495 0.76188,-1.649495 1.23588,-1.156024 1.23589,-1.156025 1.57411,-0.604972 1.57412,-0.604973 2.11667,-0.02028 2.11666,-0.02029 1.98438,0.613437 1.98437,0.613438 1.19063,0.798156 1.19062,0.798155 0.2147,0.371104 0.2147,0.371104 0.24832,-0.153472 0.24833,-0.153472 V 58.761 52.426615 h 6.35 6.35 v 21.96601 21.966009 l -5.21729,-0.07174 -5.21729,-0.07174 -0.56281,-1.984375 -0.56282,-1.984375 -0.23917,0.104042 -0.23917,0.10404 -1.00305,1.139528 -1.00305,1.139529 -1.3782,0.785222 -1.3782,0.785223 -1.62569,0.418602 -1.62569,0.418606 -1.81389,-0.01842 -1.81389,-0.01842 -1.30903,-0.401691 z M -156.4294,79.678698 V 69.095365 h -3.175 -3.175 v 10.583333 10.583333 h 3.175 3.175 z m 30.55937,17.29999 -0.79375,-0.114888 -1.98438,-0.421782 -1.98437,-0.421783 -1.47813,-0.744427 -1.47814,-0.744426 -0.83202,-0.947621 -0.83202,-0.947624 -0.40075,-0.774948 -0.40074,-0.774952 -0.26042,-1.801164 -0.26042,-1.801167 v -7.9375 -7.937499 l 0.25992,-1.797608 0.25992,-1.797608 0.51752,-1.01444 0.51753,-1.01444 1.19379,-1.050814 1.19379,-1.050814 1.46726,-0.561491 1.46727,-0.561492 2.44324,-0.449607 2.44323,-0.449606 4.36563,0.0099 4.36562,0.0099 2.63248,0.554256 2.63247,0.554255 1.65759,0.816028 1.65758,0.816027 0.80109,0.971862 0.80109,0.971862 0.4651,1.331299 0.4651,1.331301 v 10.318749 10.31875 l -0.47924,1.37387 -0.47924,1.373868 -1.04784,1.079735 -1.04785,1.079733 -1.42858,0.653447 -1.42858,0.653446 -1.67454,0.422656 -1.67454,0.422656 -5.42396,0.0845 -5.42396,0.0845 z m 8.20208,-17.432282 V 68.963073 l -3.10885,-0.07454 -3.10886,-0.07454 v 10.547633 10.547633 l 0.18457,0.184566 0.18457,0.184565 2.92428,-0.07432 2.92429,-0.07432 z m 87.44479,17.171556 -2.248958,-0.405521 -1.719792,-0.79143 -1.719792,-0.79143 -0.883081,-0.844711 -0.883081,-0.844714 -0.572127,-1.058333 -0.572127,-1.058334 V 79.546406 68.169323 l 0.58425,-1.092256 0.584253,-1.092256 1.228913,-1.081733 1.228913,-1.081733 1.402188,-0.524626 1.402186,-0.524625 2.340898,-0.455113 2.340898,-0.455113 4.365625,0.0048 4.365625,0.0048 2.741276,0.580213 2.741277,0.580213 1.507926,0.7612 1.507929,0.7612 0.9703039,1.07401 0.9703038,1.074009 0.4561998,0.998081 0.4561999,0.998082 0.099931,6.280488 0.09993,6.280491 -9.4798034,0.06951 -9.479806,0.06951 v 4.365625 4.365624 h 3.042708 3.042708 l 0.07573,-2.579687 0.07573,-2.579687 h 6.340419 6.3404194 l -0.00212,1.25677 -0.00212,1.256771 -0.2731293,1.683253 -0.273132,1.683252 -0.6262396,1.227164 -0.6262423,1.227164 -0.7522732,0.708631 -0.752277,0.708631 -1.348716,0.674092 -1.348719,0.67409 -1.693989,0.427916 -1.693992,0.427913 -5.55625,0.09873 -5.55625,0.09874 -2.248958,-0.405522 z m 10.054166,-23.926828 v -3.977146 l -3.108854,0.07454 -3.108854,0.07454 -0.07419,3.558527 -0.07419,3.558527 0.132035,0.344077 0.132035,0.344077 h 3.051013 3.051011 z m -211.387546,23.093293 0.0145,-0.463021 4.0271,-19.976041 4.0271,-19.976041 7.28452,-0.07024 7.28452,-0.07024 -4.10106,20.509304 -4.10106,20.509304 h -7.22508 -7.22509 l 0.0145,-0.463021 z M -58.798159,74.387032 V 52.426615 h 6.35 6.35 v 21.960417 21.960416 h -6.35 -6.35 z m 57.4145806,18.926685 v -3.033734 l 0.39133729,-0.86887 0.39133725,-0.868874 3.70970426,-9.541292 3.7097042,-9.541296 V 69.145216 68.830782 H 2.9820464 -0.85441172 V 65.788073 62.745365 H 10.141354 21.137119 l -0.08902,3.108854 -0.08902,3.108854 -2.601422,6.746875 -2.601423,6.746875 -1.397871,3.704167 -1.397868,3.704166 0.119619,0.198438 0.119615,0.198437 h 4.085428 4.085426 v 3.042708 3.042709 H 9.9935044 -1.3835784 Z M -202.20232,89.758376 v -6.324492 l 6.15156,-3.313887 6.15157,-3.313888 0.7276,-0.325967 0.7276,-0.325966 -7.9e-4,-0.288261 -9.3e-4,-0.288259 -5.88611,-3.156629 -5.88612,-3.156631 -0.99219,-0.617001 -0.99219,-0.617001 V 61.787697 55.545 l 0.45066,0.172934 0.45066,0.172933 9.73967,6.111162 9.73968,6.111161 -0.07,7.819548 -0.07,7.819548 -3.70417,2.293935 -3.70417,2.293938 -6.31784,3.871354 -6.31785,3.871351 h -0.0983 -0.0983 z"
         id="path3510" />
      <path
         style="fill:#8fed8f;stroke-width:0.264583"
         d="m -85.032902,111.04676 -2.02537,-0.35417 -1.017338,-0.32552 -1.017339,-0.32551 -1.792486,-0.93015 -1.792488,-0.93014 -1.297824,-1.42003 -1.297821,-1.42002 -0.27569,-1.38803 -0.275688,-1.38803 0.201205,-0.92291 0.201205,-0.92291 5.016875,0.0714 5.016878,0.0714 1.389063,0.15436 1.389062,0.15436 v 1.5691 1.5691 l 1.785938,-0.0782 1.785937,-0.0782 0.07198,-4.960942 0.07198,-4.960937 h -0.265054 -0.265055 l -1.394428,1.064244 -1.394431,1.064242 -2.171385,0.68317 -2.171382,0.683167 -2.194243,-0.101605 -2.194239,-0.101606 -1.671902,-0.76409 -1.671905,-0.76409 -1.177414,-1.344737 -1.177415,-1.344737 -0.587247,-1.455208 -0.587248,-1.455208 -0.08438,-9.44907 -0.08438,-9.449067 0.262872,-1.422005 0.262874,-1.422005 0.690369,-1.458085 0.690372,-1.458085 1.112496,-1.13597 1.112496,-1.135969 1.367142,-0.633294 1.367142,-0.633294 1.5451,-0.272164 1.5451,-0.272165 1.98255,0.41186 1.982549,0.41186 1.615281,0.793399 1.615281,0.793398 1.239592,1.325224 1.239594,1.325224 h 0.23346 0.233463 l 0.270219,-0.859896 0.270219,-0.859896 0.289663,-1.124479 0.289666,-1.124479 h 5.16115 5.161153 l -0.08818,18.057812 -0.08818,18.057812 -0.678945,2.018511 -0.678942,2.0185 -0.978387,1.6106 -0.978384,1.6106 -1.460984,1.30215 -1.460984,1.30215 -1.63413,0.8264 -1.63413,0.8264 -1.852084,0.37839 -1.852083,0.37839 -1.5875,0.13393 -1.5875,0.13392 z m 6.063234,-31.301916 -0.06911,-10.781771 h -3.175 -3.175 l -0.06927,10.450507 -0.06928,10.450505 0.127116,0.331266 0.127119,0.331263 h 3.186271 3.186271 z m -89.365982,17.018605 -1.19063,-0.33043 -0.8095,-0.420396 -0.80951,-0.420397 -1.13016,-1.130167 -1.13017,-1.130165 -0.50898,-0.997694 -0.50899,-0.997696 -0.39561,-1.518867 -0.39562,-1.518867 0.004,-9.00639 0.004,-9.00639 0.35947,-1.527668 0.35947,-1.527669 0.94875,-1.428917 0.94875,-1.428916 1.13504,-0.774978 1.13504,-0.774978 1.45521,-0.487046 1.45521,-0.487046 1.85208,-0.0012 1.85208,-0.0012 1.95162,0.599537 1.95161,0.599537 1.00744,0.635964 1.00743,0.635964 0.55852,0.599506 0.55852,0.599505 0.25393,-0.393329 0.25393,-0.393334 -0.0673,-6.151779 -0.0673,-6.151778 6.28385,2.16e-4 6.28386,2.16e-4 V 74.387014 96.34743 h -5.13361 -5.1336 l -0.55494,-1.827012 -0.55494,-1.827009 V 92.40377 92.114114 l -0.19843,1.3e-4 -0.19844,1.3e-4 -1.12045,1.301059 -1.12044,1.301059 -1.3931,0.79375 -1.3931,0.793748 -1.62569,0.418602 -1.62569,0.418606 -1.6816,-0.02365 -1.6816,-0.02365 -1.19062,-0.330433 z m 12.03854,-17.084751 V 69.227657 l -3.24115,-0.07429 -3.24114,-0.07429 v 10.59962 10.599621 l 3.24114,-0.07429 3.24115,-0.07429 z m 29.26423,17.082182 -2.22118,-0.36019 -1.84615,-0.743204 -1.84615,-0.743202 -1.09801,-1.069355 -1.09801,-1.069356 -0.5232,-1.058334 -0.5232,-1.058333 -0.0776,-10.54228 -0.0776,-10.542279 0.39858,-1.371074 0.39858,-1.371074 0.94692,-1.106263 0.94692,-1.106263 1.64254,-0.806818 1.64254,-0.806818 1.91207,-0.397164 1.91206,-0.397163 2.71815,-0.282549 2.71814,-0.28255 2.64583,0.173404 2.64584,0.173404 2.50018,0.49793 2.50018,0.49793 1.65759,0.816027 1.65758,0.816028 0.80109,0.971861 0.80109,0.971862 0.4651,1.3313 0.4651,1.3313 v 10.318749 10.31875 l -0.47924,1.37387 -0.47924,1.373868 -1.04784,1.079735 -1.04785,1.079733 -1.42858,0.653447 -1.42858,0.653446 -1.67454,0.421908 -1.67454,0.421904 -5.29167,0.099 -5.29167,0.099 z m 9.49722,-17.214474 V 68.830782 h -3.175 -3.175 v 10.539235 10.539237 l 0.17639,0.176387 0.17639,0.17639 h 2.99861 2.99861 z m 88.238541,17.320186 -1.5875,-0.24184 -1.824066,-0.580967 -1.824067,-0.580964 -1.216966,-0.814459 -1.216967,-0.814456 -0.846098,-1.417614 -0.846101,-1.417613 -0.16638,-1.360512 -0.166381,-1.360511 0.08476,-9.921875 0.08476,-9.921874 0.702932,-1.322917 0.702934,-1.322917 0.752274,-0.699171 0.752276,-0.699171 1.322917,-0.656915 1.322917,-0.656915 1.852083,-0.416007 1.852083,-0.416006 2.910417,-0.299559 2.910416,-0.29956 2.513542,0.17267 2.513541,0.172669 2.608985,0.5209 2.608985,0.520901 1.507926,0.7612 1.507929,0.7612 0.9703039,1.074009 0.9703038,1.07401 0.4561998,0.998081 0.4561999,0.998081 0.099931,6.280488 0.09993,6.280492 -9.4798034,0.06951 -9.479806,0.06951 v 4.365625 4.365624 h 3.175 3.175 l 0.07573,-2.579687 0.07573,-2.579687 h 6.208128 6.2081274 l -0.00212,1.25677 -0.00212,1.256771 -0.2731293,1.683253 -0.273132,1.683252 -0.6262396,1.227164 -0.6262423,1.227164 -0.7522732,0.708631 -0.752277,0.708631 -1.348716,0.674092 -1.348719,0.67409 -1.693989,0.427191 -1.693992,0.427193 -5.423958,0.09193 -5.423958,0.09193 -1.5875,-0.24184 z m 9.260417,-24.06706 v -3.836459 h -3.175 -3.175 l -0.07419,3.558527 -0.07419,3.558527 0.135273,0.352517 0.135274,0.352518 3.11392,-0.07459 3.113919,-0.07459 z m -211.448238,22.952603 0.14349,-0.595312 3.70869,-18.520833 3.70869,-18.520833 0.29947,-1.389063 0.29946,-1.389062 h 7.20236 7.20235 l -4.10023,20.505208 -4.10024,20.505208 h -7.25376 -7.25377 z M -58.533576,74.387032 V 52.426615 h 6.217708 6.217709 v 21.960417 21.960416 h -6.217709 -6.217708 z M -1.3835784,93.587457 V 90.827469 L 0.83686572,85.054645 3.0573098,79.281823 3.340324,78.620365 3.6233408,77.958906 5.3532157,73.51115 7.0830879,69.063394 V 68.947088 68.830782 H 3.2466297 -0.5898284 V 65.788073 62.745365 H 10.273645 21.137119 l -0.08902,3.108854 -0.08902,3.108854 -2.601422,6.746875 -2.601423,6.746875 -1.397871,3.704167 -1.397868,3.704166 0.119619,0.198438 0.119615,0.198437 h 4.085428 4.085426 v 3.042708 3.042709 H 9.9935044 -1.3835784 Z m -200.6720716,2.289302 -0.14667,-0.146672 v -6.023303 -6.023302 l 0.72761,-0.506553 0.7276,-0.50655 2.63222,-1.379842 2.63223,-1.379842 3.66574,-2.006885 3.66574,-2.006886 -0.21754,-0.217543 -0.21754,-0.217543 -2.24397,-1.224307 -2.24396,-1.224303 -4.23334,-2.265921 -4.23333,-2.265923 -0.33073,-0.405037 -0.33073,-0.405038 V 61.608155 55.545 l 0.45066,0.172934 0.45066,0.172933 9.73967,6.111162 9.73968,6.111161 -0.07,7.819548 -0.07,7.819548 -3.70417,2.293935 -3.70417,2.293938 -6.26947,3.841636 -6.26947,3.841636 z"
         id="path3508" />
      <path
         style="fill:#8fed8f;stroke-width:0.264583"
         d="m -236.79328,172.56752 0.14349,-0.59531 3.70869,-18.52083 3.70869,-18.52083 0.29947,-1.38907 0.29946,-1.38906 h 7.20236 7.20235 l -4.10023,20.50521 -4.10024,20.50521 h -7.25376 -7.25377 z m 29.42929,0.12463 -0.14667,-0.14667 v -6.02331 -6.0233 l 0.72761,-0.50655 0.7276,-0.50655 2.63222,-1.37984 2.63223,-1.37985 3.66574,-2.00688 3.66574,-2.00689 -0.21754,-0.21754 -0.21754,-0.21754 -2.24397,-1.22431 -2.24396,-1.2243 -4.23334,-2.26592 -4.23333,-2.26593 -0.33073,-0.40503 -0.33073,-0.40504 v -6.06316 -6.06315 l 0.45066,0.17293 0.45066,0.17294 9.73967,6.11116 9.73968,6.11116 -0.07,7.81955 -0.07,7.81954 -3.70417,2.29394 -3.70417,2.29394 -6.26947,3.84163 -6.26947,3.84164 z"
         id="path3508-8"
         sodipodi:nodetypes="cccccccccccccccccccccccccccccccccccccccccccc" />
    </g>
  </g>
</svg>
